<?xml version="1.0" standalone="no"?>
<!DOCTYPE svg PUBLIC "-//W3C//DTD SVG 20010904//EN"
 "http://www.w3.org/TR/2001/REC-SVG-20010904/DTD/svg10.dtd">
<svg version="1.0" xmlns="http://www.w3.org/2000/svg"
 width="128.000000pt" height="128.000000pt" viewBox="0 0 128.000000 128.000000"
 preserveAspectRatio="xMidYMid meet">

<g transform="translate(0.000000,128.000000) scale(0.100000,-0.100000)"
fill="#000000" stroke="none">
<path d="M685 1209 c-22 -39 -50 -83 -62 -98 -12 -16 -25 -47 -29 -71 -7 -43
-33 -80 -57 -80 -7 0 -18 -9 -25 -20 -10 -17 -9 -26 5 -53 15 -27 18 -29 21
-12 2 17 11 21 50 23 26 1 56 -2 67 -7 71 -30 115 -53 120 -62 4 -5 22 -9 41
-9 28 0 34 -4 34 -21 0 -11 -5 -29 -10 -39 -10 -18 -9 -18 27 -3 45 18 49 24
57 75 7 40 10 43 63 52 22 4 37 0 48 -10 8 -8 19 -13 24 -10 18 12 59 96 66
135 4 22 15 55 24 74 l18 35 -30 6 c-28 6 -101 1 -155 -10 -16 -3 -25 2 -34
20 -6 14 -15 23 -20 20 -5 -4 -16 3 -24 15 -8 11 -25 26 -37 33 -20 10 -21 10
-8 -6 18 -21 13 -26 -20 -19 -18 3 -40 23 -65 59 -22 29 -41 54 -44 54 -3 0
-23 -32 -45 -71z m-26 -237 c0 -15 -4 -36 -8 -46 -7 -17 -8 -18 -14 -3 -4 10
-12 14 -22 11 -24 -10 -19 42 7 60 27 19 38 12 37 -22z m28 -14 c-3 -8 -6 -5
-6 6 -1 11 2 17 5 13 3 -3 4 -12 1 -19z m123 -39 c0 -10 -11 -31 -25 -46 l-24
-28 -1 26 c0 14 -5 30 -10 35 -7 7 -4 19 11 39 21 26 23 26 36 9 7 -10 13 -26
13 -35z"/>
<path d="M511 1124 c0 -11 3 -14 6 -6 3 7 2 16 -1 19 -3 4 -6 -2 -5 -13z"/>
<path d="M604 859 c-11 -18 31 -52 55 -44 29 9 27 29 -4 43 -32 15 -42 15 -51
1z"/>
<path d="M1225 776 c-22 -7 -54 -20 -72 -29 -18 -9 -45 -17 -61 -17 -21 0 -32
-7 -40 -25 -16 -34 -79 -73 -132 -80 -25 -3 -61 -9 -81 -12 -33 -4 -37 -2 -49
26 -7 17 -10 37 -6 46 4 12 -3 15 -39 15 -24 0 -47 -5 -50 -10 -9 -14 -75 -10
-99 6 -10 7 -24 10 -30 8 -7 -3 -20 4 -30 15 -18 20 -19 20 -44 -17 -13 -20
-54 -69 -89 -109 l-64 -71 -147 0 c-214 1 -192 7 -192 -58 0 -50 2 -55 18 -49
9 5 31 9 47 11 17 2 75 8 130 13 55 6 105 10 111 11 6 0 15 -15 20 -32 l10
-33 93 -8 c84 -7 95 -6 121 13 24 17 29 18 34 5 3 -8 4 -21 2 -27 -1 -7 -1
-10 1 -5 9 14 35 7 29 -8 -3 -9 0 -15 9 -15 8 0 30 -9 50 -20 46 -26 61 -26
35 0 -31 31 -24 47 8 18 20 -20 34 -25 55 -21 15 3 30 9 33 14 3 5 18 9 35 9
16 0 29 4 29 8 0 5 79 9 175 8 133 -1 176 2 180 12 3 8 14 10 30 6 l25 -6 0
211 c0 116 -3 211 -7 210 -5 0 -26 -6 -48 -13z m-450 -216 c3 -6 -4 -10 -17
-10 -18 0 -20 2 -8 10 19 12 18 12 25 0z m-104 -57 c-7 -14 -4 -20 17 -30 20
-8 22 -12 9 -12 -13 -1 -17 -6 -12 -20 3 -11 1 -22 -5 -26 -5 -3 -10 -1 -10 5
0 7 -6 10 -13 7 -6 -2 -18 2 -25 9 -11 12 -10 15 2 20 9 3 16 16 16 28 0 24 8
36 22 36 5 0 5 -8 -1 -17z m183 -32 c17 -19 17 -20 -18 -26 -20 -4 -36 -11
-36 -16 0 -5 -4 -9 -8 -9 -5 0 -8 10 -8 23 1 17 -5 22 -24 23 -46 2 -46 7 0
14 73 11 76 11 94 -9z m-74 -22 c0 -6 -9 -22 -19 -35 l-19 -24 1 27 c2 26 13
43 30 43 4 0 7 -5 7 -11z m-50 -14 c0 -8 -7 -15 -15 -15 -13 0 -14 3 -3 15 16
18 18 18 18 0z m193 -25 c3 -13 0 -20 -9 -20 -8 0 -17 0 -21 -1 -4 0 -9 5 -12
12 -2 7 1 9 10 4 11 -6 12 -5 2 6 -7 7 -13 19 -13 26 0 21 36 -2 43 -27z
m-278 -10 c9 15 28 12 22 -4 -3 -8 -1 -17 6 -19 8 -3 5 -7 -6 -12 -11 -5 -25
-1 -37 10 -23 20 -28 44 -6 26 10 -8 16 -9 21 -1z m65 -4 c0 -11 -19 -15 -25
-6 -3 5 1 10 9 10 9 0 16 -2 16 -4z"/>
<path d="M499 190 c-14 -4 -46 -19 -70 -33 l-44 -25 -115 13 c-226 25 -270 27
-270 11 0 -9 14 -16 38 -20 80 -13 282 -29 387 -31 61 -1 125 -7 144 -13 19
-6 37 -9 41 -7 6 4 56 0 225 -19 22 -3 59 -5 83 -5 26 -1 41 -5 37 -11 -3 -6
-17 -10 -31 -10 -16 0 -23 -4 -18 -11 4 -7 1 -10 -7 -7 -8 3 -13 11 -11 17 2
9 -11 10 -44 7 -25 -3 -50 -8 -55 -11 -5 -4 -9 -1 -9 6 0 7 -8 5 -21 -7 -12
-10 -23 -18 -25 -16 -2 1 -5 2 -6 2 -2 -1 -33 -2 -71 -4 -37 -2 -70 -6 -74
-10 -3 -3 152 -6 346 -6 l352 0 -2 48 c-2 39 -6 48 -21 48 -21 0 -24 -12 -5
-19 14 -6 -119 0 -293 13 -69 5 -170 12 -225 16 -85 5 -103 9 -118 27 -20 23
-78 67 -86 66 -3 0 -18 -4 -32 -9z m-19 -30 c-35 -24 -54 -31 -30 -11 14 11
30 21 35 21 6 0 3 -5 -5 -10z"/>
<path d="M1230 160 c-8 -5 -26 -10 -40 -11 -24 -2 -24 -2 -2 -6 13 -3 26 -11
29 -19 3 -8 9 -14 15 -14 5 0 6 5 3 11 -4 5 1 19 11 30 18 20 9 25 -16 9z"/>
<path d="M100 50 c0 -5 5 -10 11 -10 5 0 7 5 4 10 -3 6 -8 10 -11 10 -2 0 -4
-4 -4 -10z"/>
<path d="M130 43 c0 -7 -9 -13 -19 -13 -11 0 -22 -6 -24 -12 -4 -8 -6 -7 -6 4
-1 14 -6 15 -36 5 -57 -17 -40 -27 45 -27 50 0 80 4 80 11 0 5 -6 7 -12 3 -10
-6 -10 -4 0 8 9 11 10 18 2 23 -5 3 -10 0 -10 -7 0 -9 -3 -9 -10 2 -6 10 -10
11 -10 3z"/>
<path d="M177 34 c-3 -3 -3 -12 -1 -19 6 -16 184 -20 184 -4 0 6 -4 7 -10 4
-5 -3 -10 -2 -10 2 0 5 -20 8 -45 8 -25 0 -45 -3 -45 -7 0 -14 -18 -9 -36 10
-17 16 -18 16 -11 -3 7 -18 6 -19 -6 -3 -8 10 -17 15 -20 12z"/>
</g>
</svg>
